# xmcd CD database file
#
# Track frame offsets:
#	150
#	10875
#	20600
#	29492
#	41237
#	50282
#	63037
#	74032
#	83107
#	95760
#	106282
#	114947
#	123337
#	134137
#	143192
#	155792
#	166097
#	178247
#	188912
#	200372
#	209530
#	221155
#	234150
#	247630
#	261022
#	269155
#	279952
#	290160
#	303097
#
# Disc length: 4200 seconds
#
# Revision: 2
# Processed by: cddbd v1.5.2PL0 Copyright (c) Steve Scherf et al.
# Submitted via: CDex 1.51
#
DISCID=b610661d
DTITLE=Fiestas, the - Oh So Fine [1993 Compilation]
DYEAR=1993
DGENRE=Soul/R&B
TTITLE0=So Fine [Mono]
TTITLE1=Last Night I Dreamed [Mono]
TTITLE2=Things We Can't Forget [Mono]
TTITLE3=Our Anniversary [Mono]
TTITLE4=I'm Your Slave [Mono]
TTITLE5=Come On And Love Me [Mono]
TTITLE6=Good News
TTITLE7=That Was Me
TTITLE8=Dollar Bill
TTITLE9=It Don't Make Sense
TTITLE10=You Could Be My Girlfriend
TTITLE11=So Nice
TTITLE12=Look At That Girl
TTITLE13=Mr Dillon, Mr Dillon
TTITLE14=The Hobo's Prayer
TTITLE15=The Lawman
TTITLE16=Broken Heart
TTITLE17=The Railroad Song
TTITLE18=I Feel Good All Over
TTITLE19=The Gypsy Said
TTITLE20=The Party's Over
TTITLE21=Try It One More Time
TTITLE22=Foolish Dreamer
TTITLE23=Rock-A-By Baby Don't Cry No More
TTITLE24=All That's Good
TTITLE25=Anna
TTITLE26=Think Smart
TTITLE27=Love Is Good To Me
TTITLE28=I Gotta Have Your Lovin
EXTD=YEAR: 1993
EXTT0=
EXTT1=
EXTT2=
EXTT3=
EXTT4=
EXTT5=
EXTT6=
EXTT7=
EXTT8=
EXTT9=
EXTT10=
EXTT11=
EXTT12=
EXTT13=
EXTT14=
EXTT15=
EXTT16=
EXTT17=
EXTT18=
EXTT19=
EXTT20=
EXTT21=
EXTT22=
EXTT23=
EXTT24=
EXTT25=
EXTT26=
EXTT27=
EXTT28=
PLAYORDER=
